# xmcd
#
# Track frame offsets:
#	150
#	12673
#	26651
#	40992
#	63261
#	75416
#	90297
#	104468
#	125670
#	141937
#	156657
#	175273
#	197490
#
# Disc length: 2750 seconds
#
# Revision: 0
# Processed by: cddbd v1.5.2PL0 Copyright (c) Steve Scherf et al.
# Submitted via: EZCDAudioConverter 3.1.5.1
#
DISCID=ac0abc0d
DTITLE=Πύξ Λάξ - Τι Άλλο Να Πείς Πιο Απλά
DYEAR=2011
DGENRE=Έντεχνο
TTITLE0=Με Στέλνεις
TTITLE1=Πως Σε Μισώ
TTITLE2=Θέλω Κάτι Ν' Αλλάξω
TTITLE3=	Ξανά
TTITLE4=	Χίλιοι Θεοί
TTITLE5=Μάρα - Μπου
TTITLE6=Αφορμή
TTITLE7=Ψάχνω Τη Νύχτα
TTITLE8=	Πάλι Φεύγω
TTITLE9=Εσύ Δεν Είσαι Εσύ
TTITLE10=Καλέ Μου Μπάσταρδε Ήρωα
TTITLE11=Προσωπική Αναζήτηση
TTITLE12=Τι Άλλο Να Πω Πιο Απλά
EXTD=
EXTT0=
EXTT1=
EXTT2=
EXTT3=
EXTT4=
EXTT5=
EXTT6=
EXTT7=
EXTT8=
EXTT9=
EXTT10=
EXTT11=
EXTT12=
PLAYORDER=
